<?xml version="1.0" standalone="no"?>
<!DOCTYPE svg PUBLIC "-//W3C//DTD SVG 20010904//EN"
 "http://www.w3.org/TR/2001/REC-SVG-20010904/DTD/svg10.dtd">
<svg version="1.0" xmlns="http://www.w3.org/2000/svg"
 width="250.000000pt" height="250.000000pt" viewBox="0 0 250.000000 250.000000"
 preserveAspectRatio="xMidYMid meet">

<g transform="translate(0.000000,250.000000) scale(0.100000,-0.100000)"
fill="#000000" stroke="none">
<path d="M810 2445 c-356 -76 -619 -334 -707 -693 -26 -105 -21 -292 11 -415
80 -310 298 -538 616 -643 79 -26 97 -28 250 -28 143 -1 175 2 245 22 95 27
201 77 270 126 l50 36 400 -400 c322 -322 405 -400 426 -400 30 0 129 97 129
127 0 10 -173 191 -401 419 l-402 402 46 73 c118 190 163 381 138 589 -31 251
-165 484 -365 629 -70 52 -218 123 -301 146 -83 23 -319 29 -405 10z m369
-111 c218 -52 430 -228 525 -434 57 -124 70 -188 70 -345 1 -120 -2 -151 -22
-215 -110 -349 -408 -572 -767 -573 -566 -1 -951 576 -733 1100 104 252 346
440 618 482 82 12 225 6 309 -15z"/>
<path d="M1052 1933 c14 -88 22 -88 33 0 7 56 7 57 -17 57 -25 0 -25 -1 -16
-57z"/>
<path d="M896 1962 c-6 -11 35 -102 47 -102 6 0 7 15 3 38 -3 20 -6 45 -6 55
0 17 -34 25 -44 9z"/>
<path d="M1195 1937 c-4 -19 -5 -47 -3 -63 3 -27 5 -26 29 26 17 37 22 57 15
62 -22 15 -35 7 -41 -25z"/>
<path d="M766 1905 c-17 -13 -16 -16 19 -59 20 -25 41 -44 45 -41 8 5 -23 90
-39 107 -3 4 -14 0 -25 -7z"/>
<path d="M1321 1858 c-12 -28 -19 -54 -16 -57 3 -3 23 15 45 39 35 40 37 46
22 58 -24 19 -28 16 -51 -40z"/>
<path d="M644 1802 c-10 -15 -5 -22 36 -49 26 -18 50 -29 54 -26 6 6 -62 93
-73 93 -3 0 -11 -8 -17 -18z"/>
<path d="M1444 1666 c-128 -64 -183 -81 -576 -181 -285 -72 -302 -75 -412 -75
-92 0 -116 -3 -116 -14 0 -24 144 -66 229 -66 40 0 43 -2 37 -23 -3 -14 1 -33
11 -46 13 -19 22 -22 48 -18 27 4 34 2 38 -14 7 -25 49 -43 82 -35 59 15 56
98 -5 111 -21 5 -30 12 -28 22 2 12 76 36 273 89 149 41 271 74 271 74 1 0 5
-11 8 -25 9 -34 42 -50 72 -36 19 8 24 8 24 -4 0 -17 38 -45 62 -45 24 0 58
35 58 59 0 27 -27 51 -56 51 -20 0 -25 4 -22 21 2 15 18 27 55 41 86 32 148
119 111 156 -21 21 -54 13 -164 -42z m137 -50 c-12 -13 -49 -36 -81 -50 -59
-27 -764 -220 -780 -214 -5 2 156 47 357 101 362 96 466 131 499 168 9 11 19
19 22 19 3 0 -5 -11 -17 -24z m-195 -127 c4 -8 0 -9 -15 -4 -25 8 -42 -22 -20
-35 7 -5 10 -12 6 -16 -3 -4 -13 -1 -22 6 -15 13 -20 42 -8 53 10 11 51 8 59
-4z m13 -25 c2 -2 2 -7 -2 -10 -8 -9 -47 6 -47 17 0 9 37 3 49 -7z m23 -21
c-3 -16 -7 -22 -10 -15 -4 13 4 42 11 42 2 0 2 -12 -1 -27z m63 7 c4 -6 1 -18
-6 -26 -11 -13 -14 -13 -27 0 -8 8 -11 19 -8 25 9 14 33 14 41 1z m-1042 -76
c34 -9 107 -20 162 -24 l100 -7 -91 -1 c-93 -2 -237 26 -259 50 -7 8 -5 9 8 5
10 -4 46 -14 80 -23z m253 -65 c5 -8 -1 -10 -19 -5 -33 8 -44 -10 -21 -35 15
-17 15 -19 1 -19 -20 0 -39 33 -31 54 7 19 59 22 70 5z m13 -25 c2 -2 2 -7 -2
-10 -9 -9 -57 5 -57 16 0 9 47 4 59 -6z m19 -19 c-6 -14 -13 -23 -15 -21 -5 5
15 46 22 46 3 0 -1 -11 -7 -25z m65 -9 c7 -18 -1 -26 -25 -26 -18 0 -25 20
-11 33 11 12 31 8 36 -7z"/>
<path d="M556 1674 c-3 -9 -6 -17 -6 -19 0 -4 90 -35 102 -35 19 0 5 19 -32
44 -46 30 -56 32 -64 10z"/>
</g>
</svg>
